<?xml version="1.0" encoding="UTF-8"?>
<svg width="44px" height="70px" viewBox="0 0 44 70" version="1.1" xmlns="http://www.w3.org/2000/svg" xmlns:xlink="http://www.w3.org/1999/xlink">
    <!-- Generator: Sketch 51.3 (57544) - http://www.bohemiancoding.com/sketch -->
    <title>curved-arrow</title>
    <desc>Created with Sketch.</desc>
    <defs></defs>
    <g id="Page-1" stroke="none" stroke-width="1" fill="none" fill-rule="evenodd">
        <g id="curved-arrow" transform="translate(22.000000, 35.000000) scale(-1, 1) translate(-22.000000, -35.000000) " fill="#F15F61" fill-rule="nonzero">
            <path d="M8.9,52 C8.2,53.3 7.4,54.6 6.6,55.9 C5.1,58.4 3.4,60.8 1.6,63.1 C1.3,63.6 1,64.1 0.9,64.7 C-4.99600361e-16,66.4 0.4,70 2,70 C6.3,69.9 10.7,69 15,68.5 C19.4,67.9 23.8,67.3 28.2,66.8 C29.5,66.6 29.7,64.8 29.7,63.8 C29.7,63.1 29.4,60.6 28.2,60.8 C23.8,61.4 19.4,62 15,62.5 C14.3,62.6 13.6,62.7 12.9,62.8 C20.3,60 26.9,55.4 32.2,49.4 C39.8,40.7 44.4,29.2 43.4,17.5 C42.8,11.3 40.4,5.1 36.2,0.5 C35.3,-0.5 34.4,0.7 34.1,1.6 C33.7,2.8 33.7,4.8 34.6,5.8 C37.7,9.2 39.7,13.5 40.3,17.9 C40.6,20 40.6,22.2 40.3,24.5 C40,27 39.3,29.4 38.4,31.7 C35,40.3 28.5,47.7 20.7,52.6 C17.5,54.6 14.1,56.3 10.5,57.5 C11.4,55.9 12.4,54.3 13.1,52.7 C13.9,50.8 14.2,46.8 11.7,46.2 C11.3,46.1 10.8,46.8 10.6,47.1 C10.3,47.7 10.2,48.6 10.2,49.3 C10.2,49.5 10.2,49.8 10.2,50 C10.1,50.2 10,50.3 10,50.5 C9.5,50.9 9.2,51.4 8.9,52 Z" id="Shape"></path>
        </g>
    </g>
</svg>